<svg xmlns="http://www.w3.org/2000/svg" version="1.1" xmlns:xlink="http://www.w3.org/1999/xlink" xmlns:svgjs="http://svgjs.dev/svgjs" width="128" height="128" viewBox="0 0 128 128"><g transform="matrix(0.8046875,0,0,0.8046875,12.760752631578946,31.21368529530153)"><svg viewBox="0 0 95 61" data-background-color="#ffffff" preserveAspectRatio="xMidYMid meet" height="82" width="128" xmlns="http://www.w3.org/2000/svg" xmlns:xlink="http://www.w3.org/1999/xlink"><g id="tight-bounds" transform="matrix(1,0,0,1,-0.24049999999999727,-0.19032142857143697)"><svg viewBox="0 0 95.481 61.38064285714286" height="61.38064285714286" width="95.481"><g><svg viewBox="0 0 95.481 61.38064285714286" height="61.38064285714286" width="95.481"><g><svg viewBox="0 0 95.481 61.38064285714286" height="61.38064285714286" width="95.481"><g id="textblocktransform"><svg viewBox="0 0 95.481 61.38064285714286" height="61.38064285714286" width="95.481" id="textblock"><g><svg viewBox="0 0 95.481 61.38064285714286" height="61.38064285714286" width="95.481"><g><svg viewBox="0 0 95.481 61.38064285714286" height="61.38064285714286" width="95.481"><g><svg xmlns="http://www.w3.org/2000/svg" xmlns:xlink="http://www.w3.org/1999/xlink" version="1.1" x="0" y="0" viewBox="4 14 56 36" enable-background="new 0 0 64 64" xml:space="preserve" height="61.38064285714286" width="95.481" class="icon-icon-0" data-fill-palette-color="accent" id="icon-0"><g fill="#3d9970" data-fill-palette-color="accent"><path d="M30 14v2h9c0.55 0 1 0.45 1 1v7h20V14H30zM54 20c-0.55 0-1-0.45-1-1s0.45-1 1-1 1 0.45 1 1S54.55 20 54 20zM40 26v10h20V26H40zM54 32c-0.55 0-1-0.45-1-1s0.45-1 1-1 1 0.45 1 1S54.55 32 54 32zM40 38v5c0 0.55-0.45 1-1 1H27v2h6c0.55 0 1 0.45 1 1v1h26V38H40zM54 44c-0.55 0-1-0.45-1-1s0.45-1 1-1 1 0.45 1 1S54.55 44 54 44zM10 48v2h22v-2H10zM17 44v2h8v-2H17zM4 18v24h34V18H4zM13.78 33.38c0.35 0.43 0.28 1.06-0.16 1.4C13.44 34.93 13.22 35 13 35c-0.29 0-0.58-0.13-0.78-0.38l-4-5c-0.29-0.36-0.29-0.88 0-1.24l4-5c0.34-0.44 0.97-0.5 1.4-0.16 0.44 0.34 0.51 0.97 0.16 1.4L10.28 29 13.78 33.38zM15 38c-0.18 0-0.37-0.05-0.53-0.15C14 37.56 13.86 36.94 14.15 36.47l10-16C24.44 20 25.06 19.86 25.53 20.15 26 20.44 26.14 21.06 25.85 21.53l-10 16C15.66 37.83 15.33 38 15 38zM26 38h-6c-0.55 0-1-0.45-1-1s0.45-1 1-1h6c0.55 0 1 0.45 1 1S26.55 38 26 38zM33.78 29.62l-4 5C29.58 34.87 29.29 35 29 35c-0.22 0-0.44-0.07-0.62-0.22-0.44-0.34-0.51-0.97-0.16-1.4l3.5-4.38-3.5-4.38c-0.35-0.43-0.28-1.06 0.16-1.4 0.43-0.35 1.06-0.28 1.4 0.16l4 5C34.07 28.74 34.07 29.26 33.78 29.62z" fill="#3d9970" data-fill-palette-color="accent"></path></g></svg></g></svg></g></svg></g></svg></g></svg></g><g></g></svg></g><defs></defs></svg><rect width="95.481" height="61.38064285714286" fill="none" stroke="none" visibility="hidden"></rect></g></svg></g></svg>