<svg xmlns="http://www.w3.org/2000/svg" version="1.1" xmlns:xlink="http://www.w3.org/1999/xlink" xmlns:svgjs="http://svgjs.dev/svgjs" width="1000" height="484" viewBox="0 0 1000 484"><g transform="matrix(1,0,0,1,-0.6060606060606233,-0.3908325825045722)"><svg viewBox="0 0 396 192" data-background-color="#ffffff" preserveAspectRatio="xMidYMid meet" height="484" width="1000" xmlns="http://www.w3.org/2000/svg" xmlns:xlink="http://www.w3.org/1999/xlink"><g id="tight-bounds" transform="matrix(1,0,0,1,0.2400000000000091,0.15504102446462298)"><svg viewBox="0 0 395.52 191.68991795107075" height="191.68991795107075" width="395.52"><g><svg viewBox="0 0 395.52000000000004 191.68991795107078" height="191.68991795107075" width="395.52"><g transform="matrix(1,0,0,1,0,118.47205951186933)"><svg viewBox="0 0 395.52000000000004 73.21785843920145" height="73.21785843920145" width="395.52000000000004"><g id="textblocktransform"><svg viewBox="0 0 395.52000000000004 73.21785843920145" height="73.21785843920145" width="395.52000000000004" id="textblock"><g><svg viewBox="0 0 395.52000000000004 73.21785843920145" height="73.21785843920145" width="395.52000000000004"><g transform="matrix(1,0,0,1,0,0)"><svg width="395.52000000000004" viewBox="3.5 -35.7 192.84 35.7" height="73.21785843920145" data-palette-color="#ffffff"><path d="M27 0L17-12.7 13.3-8.75 13.3 0 3.5 0 3.5-35 13.3-35 13.3-20.45 26.85-35 37.75-35 23.45-19.5 38.5 0 27 0ZM56.95-35.7Q61.9-35.7 65.67-33.73 69.45-31.75 71.52-27.98 73.6-24.2 73.6-18.9L73.6-18.9 73.6 0 63.7 0 63.7-7.75 50.05-7.75 50.05 0 40.3 0 40.3-18.9Q40.3-24.2 42.37-27.98 44.45-31.75 48.22-33.73 52-35.7 56.95-35.7L56.95-35.7ZM50.05-15.4L63.7-15.4 63.7-19.75Q63.7-23.6 61.85-25.55 60-27.5 56.9-27.5L56.9-27.5Q53.75-27.5 51.9-25.55 50.05-23.6 50.05-19.75L50.05-19.75 50.05-15.4ZM101.95 0L95.6-9.3 90.2-9.3 90.2 0 80.3 0 80.3-35 96.3-35Q101.05-35 104.55-33.43 108.05-31.85 109.95-28.93 111.85-26 111.85-22.05L111.85-22.05Q111.85-18.25 110.07-15.43 108.3-12.6 105-11L105-11 112.55 0 101.95 0ZM101.85-22.05Q101.85-24.5 100.3-25.85 98.75-27.2 95.7-27.2L95.7-27.2 90.2-27.2 90.2-16.95 95.7-16.95Q98.75-16.95 100.3-18.28 101.85-19.6 101.85-22.05L101.85-22.05ZM136.89-27.35L131.24-27.35 131.24-7.65 136.89-7.65 136.89 0 115.64 0 115.64-7.65 121.34-7.65 121.34-27.35 115.64-27.35 115.64-35 136.89-35 136.89-27.35ZM183.19-35.7Q189.39-35.7 192.87-32.02 196.34-28.35 196.34-21.4L196.34-21.4 196.34 0 186.44 0 186.44-21.1Q186.44-24.25 184.79-25.88 183.14-27.5 180.39-27.5L180.39-27.5Q177.44-27.5 175.72-25.78 173.99-24.05 173.99-20.6L173.99-20.6 173.99 0 164.09 0 164.09-21.1Q164.09-24.25 162.56-25.88 161.04-27.5 158.39-27.5L158.39-27.5Q155.54-27.5 153.84-25.78 152.14-24.05 152.14-20.6L152.14-20.6 152.14 0 142.24 0 142.24-35 151.84-35 151.84-31.1Q153.44-33.35 155.97-34.52 158.49-35.7 161.84-35.7L161.84-35.7Q165.29-35.7 167.87-34.45 170.44-33.2 172.04-30.8L172.04-30.8Q173.84-33.2 176.74-34.45 179.64-35.7 183.19-35.7L183.19-35.7Z" opacity="1" transform="matrix(1,0,0,1,0,0)" fill="#ffffff" class="wordmark-text-0" data-fill-palette-color="primary" id="text-0"></path></svg></g></svg></g></svg></g></svg></g><g transform="matrix(1,0,0,1,111.0589374954628,0)"><svg viewBox="0 0 173.40212500907444 101.18708036297642" height="101.18708036297642" width="173.40212500907444"><g><svg xmlns="http://www.w3.org/2000/svg" xmlns:xlink="http://www.w3.org/1999/xlink" version="1.1" x="8" y="0" viewBox="4 14 56 36" enable-background="new 0 0 64 64" xml:space="preserve" height="101.18708036297642" width="157.40212500907444" class="icon-icon-0" data-fill-palette-color="accent" id="icon-0"><g fill="#3d9970" data-fill-palette-color="accent"><path d="M30 14v2h9c0.55 0 1 0.45 1 1v7h20V14H30zM54 20c-0.55 0-1-0.45-1-1s0.45-1 1-1 1 0.45 1 1S54.55 20 54 20zM40 26v10h20V26H40zM54 32c-0.55 0-1-0.45-1-1s0.45-1 1-1 1 0.45 1 1S54.55 32 54 32zM40 38v5c0 0.55-0.45 1-1 1H27v2h6c0.55 0 1 0.45 1 1v1h26V38H40zM54 44c-0.55 0-1-0.45-1-1s0.45-1 1-1 1 0.45 1 1S54.55 44 54 44zM10 48v2h22v-2H10zM17 44v2h8v-2H17zM4 18v24h34V18H4zM13.78 33.38c0.35 0.43 0.28 1.06-0.16 1.4C13.44 34.93 13.22 35 13 35c-0.29 0-0.58-0.13-0.78-0.38l-4-5c-0.29-0.36-0.29-0.88 0-1.24l4-5c0.34-0.44 0.97-0.5 1.4-0.16 0.44 0.34 0.51 0.97 0.16 1.4L10.28 29 13.78 33.38zM15 38c-0.18 0-0.37-0.05-0.53-0.15C14 37.56 13.86 36.94 14.15 36.47l10-16C24.44 20 25.06 19.86 25.53 20.15 26 20.44 26.14 21.06 25.85 21.53l-10 16C15.66 37.83 15.33 38 15 38zM26 38h-6c-0.55 0-1-0.45-1-1s0.45-1 1-1h6c0.55 0 1 0.45 1 1S26.55 38 26 38zM33.78 29.62l-4 5C29.58 34.87 29.29 35 29 35c-0.22 0-0.44-0.07-0.62-0.22-0.44-0.34-0.51-0.97-0.16-1.4l3.5-4.38-3.5-4.38c-0.35-0.43-0.28-1.06 0.16-1.4 0.43-0.35 1.06-0.28 1.4 0.16l4 5C34.07 28.74 34.07 29.26 33.78 29.62z" fill="#3d9970" data-fill-palette-color="accent"></path></g></svg></g></svg></g><g><rect width="111.05893749546277" height="6.602862034877097" y="93.58421832809933" x="284.46106250453727" fill="#3d9970" data-fill-palette-color="accent"></rect><rect width="111.05893749546277" height="6.602862034877097" y="93.58421832809933" x="2.842170943040401e-14" fill="#3d9970" data-fill-palette-color="accent"></rect><rect width="111.05893749546277" height="6.602862034877097" y="80.37849425834513" x="284.46106250453727" fill="#3d9970" data-fill-palette-color="accent"></rect><rect width="111.05893749546277" height="6.602862034877097" y="80.37849425834513" x="2.842170943040401e-14" fill="#3d9970" data-fill-palette-color="accent"></rect></g></svg></g><defs></defs></svg><rect width="395.52" height="191.68991795107075" fill="none" stroke="none" visibility="hidden"></rect></g></svg></g></svg>